<svg xmlns="http://www.w3.org/2000/svg" viewBox="0 0 800 240" width="100%" height="100%">
  <defs>
    <style>
      .outline-text {
        font-family: 'Poppins', sans-serif;
        font-weight: 600;
        fill: none;
        stroke: #FFFFFF;
        stroke-width: 2;
        font-size: 52px;
        letter-spacing: 0.02em;
      }
      .outline-tagline {
        font-family: 'Poppins', sans-serif;
        font-weight: 400;
        fill: none;
        stroke: #FFFFFF;
        stroke-width: 1;
        font-size: 16px;
        letter-spacing: 0.05em;
      }
    </style>
  </defs>
  <g transform="translate(20, 20) scale(0.39)">
    <path d="M 256,106 C 338.8,106 406,173.2 406,256 C 406,300 387,339 356,367 C 385,385 410,380 420,360 C 405,395 375,410 330,403 C 306,406 281,406 256,406 C 173.2,406 106,338.8 106,256 C 106,173.2 173.2,106 256,106 Z" fill="none" stroke="#FFFFFF" stroke-width="24" stroke-linecap="round" stroke-linejoin="round"/>
    <path d="M 256,206 Q 256,256 206,256 Q 256,256 256,306 Q 256,256 306,256 Q 256,256 256,206 Z" fill="none" stroke="#FFFFFF" stroke-width="4"/>
    <path d="M 345,155 Q 345,175 325,175 Q 345,175 345,195 Q 345,175 365,175 Q 345,175 345,155 Z" fill="none" stroke="#FFFFFF" stroke-width="4"/>
  </g>
  <text x="260" y="135" class="outline-text">StellChat</text>
  <text x="260" y="175" class="outline-tagline">Private Messaging &amp; Payments</text>
</svg>