<svg xmlns="http://www.w3.org/2000/svg" viewBox="0 0 100 100" width="100%" height="100%">
  <defs>
    <linearGradient id="brandGrad" x1="0%" y1="0%" x2="100%" y2="100%">
      <stop offset="0%" stop-color="#35B7FF" />
      <stop offset="100%" stop-color="#8D6BFF" />
    </linearGradient>
    <style>
      @import url('https://fonts.googleapis.com/css2?family=Poppins:wght@600&amp;display=swap');
      .wordmark {
        font-family: 'Poppins', sans-serif;
        font-weight: 600;
        fill: #FFFFFF;
        font-size: 52px;
        letter-spacing: 0.02em;
      }
      .wordmark-dark {
        font-family: 'Poppins', sans-serif;
        font-weight: 600;
        fill: #090B12;
        font-size: 52px;
        letter-spacing: 0.02em;
      }
      .tagline {
        font-family: 'Poppins', sans-serif;
        font-weight: 400;
        fill: #AEB7C6;
        font-size: 20px;
        letter-spacing: 0.05em;
      }
      .tagline-dark {
        font-family: 'Poppins', sans-serif;
        font-weight: 400;
        fill: #70798B;
        font-size: 20px;
        letter-spacing: 0.05em;
      }
      .footer {
        font-family: 'Poppins', sans-serif;
        font-weight: 500;
        fill: #70798B;
        font-size: 16px;
        letter-spacing: 0.1em;
      }
    </style>
  </defs>
  <path d="M40 35C28 35 20 42 20 52C20 58 23 62 28 65L25 75L36 72C37 72 39 72 40 72C52 72 60 65 60 55" fill="none" stroke="#AEB7C6" stroke-width="3" stroke-linecap="round"/>
  <path d="M60 45C72 45 80 52 80 62C80 68 77 72 72 75L75 85L64 82C63 82 61 82 60 82C48 82 40 75 40 65" fill="none" stroke="url(#brandGrad)" stroke-width="3" stroke-linecap="round"/>
  <circle cx="50" cy="50" r="10" fill="#10131C" stroke="#00D68F" stroke-width="2"/>
  <path d="M48 50h4m-2-2v4" stroke="#00D68F" stroke-width="2" stroke-linecap="round"/>
</svg>