<svg xmlns="http://www.w3.org/2000/svg" viewBox="0 0 100 100" width="100%" height="100%">
  <defs>
    <linearGradient id="brandGrad" x1="0%" y1="0%" x2="100%" y2="100%">
      <stop offset="0%" stop-color="#35B7FF" />
      <stop offset="100%" stop-color="#8D6BFF" />
    </linearGradient>
    <style>
      @import url('https://fonts.googleapis.com/css2?family=Poppins:wght@600&amp;display=swap');
      .wordmark {
        font-family: 'Poppins', sans-serif;
        font-weight: 600;
        fill: #FFFFFF;
        font-size: 52px;
        letter-spacing: 0.02em;
      }
      .wordmark-dark {
        font-family: 'Poppins', sans-serif;
        font-weight: 600;
        fill: #090B12;
        font-size: 52px;
        letter-spacing: 0.02em;
      }
      .tagline {
        font-family: 'Poppins', sans-serif;
        font-weight: 400;
        fill: #AEB7C6;
        font-size: 20px;
        letter-spacing: 0.05em;
      }
      .tagline-dark {
        font-family: 'Poppins', sans-serif;
        font-weight: 400;
        fill: #70798B;
        font-size: 20px;
        letter-spacing: 0.05em;
      }
      .footer {
        font-family: 'Poppins', sans-serif;
        font-weight: 500;
        fill: #70798B;
        font-size: 16px;
        letter-spacing: 0.1em;
      }
    </style>
  </defs>
  <rect width="100" height="100" rx="16" fill="none" stroke="url(#brandGrad)" stroke-width="4"/>
  <path d="M50 25C35 25 25 33 25 45C25 51 28 57 34 61L30 75L44 71C46 72 48 72 50 72C65 72 75 64 75 52C75 40 65 25 50 25Z" fill="none" stroke="#FFFFFF" stroke-width="3" stroke-linecap="round" stroke-linejoin="round"/>
  <rect x="42" y="42" width="16" height="12" rx="2" fill="#00D68F"/>
  <path d="M46 42V38C46 35.8 47.8 34 50 34C52.2 34 54 35.8 54 38V42" fill="none" stroke="#00D68F" stroke-width="2" stroke-linecap="round"/>
</svg>